<?xml version="1.0" encoding="utf-8"?>
<!-- Generator: Adobe Illustrator 19.2.1, SVG Export Plug-In . SVG Version: 6.00 Build 0)  -->
<svg version="1.1" id="layer" xmlns="http://www.w3.org/2000/svg" xmlns:xlink="http://www.w3.org/1999/xlink" x="0px" y="0px"
	 viewBox="0 0 652 652" style="enable-background:new 0 0 652 652;" xml:space="preserve">
<style type="text/css">
	.st0{fill:none;}
	.st1{fill:#044568;}
</style>
<path class="st0" d="M82.7,300.6H92c0.6,0,1.1,0.5,1.1,1.1v10.9c0,0.6-0.5,1.1-1.1,1.1h-9.3c-0.6,0-1.1-0.5-1.1-1.1v-10.9
	C81.6,301.1,82.1,300.6,82.7,300.6z"/>
<path class="st0" d="M66.1,300.6h9.3c0.6,0,1.1,0.5,1.1,1.1v10.9c0,0.6-0.5,1.1-1.1,1.1h-9.3c-0.6,0-1.1-0.5-1.1-1.1v-10.9
	C65.1,301.1,65.6,300.6,66.1,300.6z"/>
<path class="st1" d="M65.1,328.2v-8.6c0-0.6,0.5-1.1,1.1-1.1h9.4c0.6,0,1.1,0.5,1.1,1.1v6.7l5.1-1.1v-5.6c0-0.6,0.5-1.1,1.1-1.1h9.5
	c0.6,0,1.1,0.5,1.1,1.1v2.6c10.1-3.1,19.8-7.4,28.9-12.8l-42.3-31.2l0,0l-44.1,32.6v18.1c3.2,0.2,6.5,0.3,9.9,0.3
	C52.2,329.3,58.6,328.9,65.1,328.2z M81.7,301.7c0.1-0.5,0.5-0.9,1-0.9h9.6c0.6,0,1.1,0.5,1.1,1.1v10.9c-0.1,0.5-0.6,0.8-1.1,0.8
	h-9.6c-0.6,0-1.1-0.5-1.1-1.1L81.7,301.7z M65.1,301.7c0-0.6,0.5-1.1,1.1-1.1h9.4c0.6,0,1.1,0.5,1.1,1.1v10.9c0,0.6-0.5,1.1-1.1,1.1
	h-9.4c-0.6,0-1.1-0.5-1.1-1.1L65.1,301.7z"/>
<path class="st1" d="M45.7,332.7c-3.9,0-7.8-0.1-11.6-0.4l0,0c0,0-19.6-3.2-5.7-13.4c0,0-17.6,6.8,5.7,20.8v2.6
	c1.2,24.7,45.7,44.7,45.7,44.7s45.7-20.4,45.7-45.6v-30.3C101.5,325.5,73.8,333.1,45.7,332.7z"/>
<polygon class="st1" points="113.9,280.8 113.9,264.2 99.9,264.2 99.9,270.7 79.8,256.1 30.2,292.6 30.2,309.2 79.8,272.7 
	130,309.2 130,292.6 "/>
<path class="st1" d="M161.1,348.2v-9.2c6,2.2,12.4,3.3,18.8,3.2c8.5,0,12.8-2.8,12.8-8.5c0-4.1-2.6-6.2-7.8-6.2h-8.7
	c-11.3-0.1-16.9-5.2-16.9-15.5c0-11.3,8.1-16.9,24.2-16.9c6,0,11.9,0.9,17.6,2.7v9.2c-5.6-2.1-11.6-3.2-17.6-3.2
	c-9.3,0-13.9,2.7-13.9,8c0,4.1,2.2,6.2,6.7,6.2h8.6c12,0,18.1,5.1,18.1,15.4c0,11.5-7.7,17.3-23,17.3
	C173.5,350.9,167.2,350.1,161.1,348.2z"/>
<path class="st1" d="M208.7,338c0-8,5.9-12,17.6-12c2.8,0,5.5,0.3,8.3,0.8v-3.2c0-3.6-2.6-5.4-7.9-5.4c-5,0.1-9.9,0.7-14.8,1.9v-7.9
	c4.8-1.2,9.8-1.8,14.8-1.8c12.1,0,18.1,4.4,18.1,13.3v27H239l-3.6-3.6c-3.4,2.4-7.5,3.6-11.7,3.6C213.7,350.6,208.7,346.3,208.7,338
	z M226.2,332.9c-4.9,0-7.4,1.7-7.4,5c0,3.3,2.1,5.1,6.2,5.4c3.5,0,6.8-1.1,9.6-3.2v-6.4C231.9,333.1,229.1,332.9,226.2,332.9
	L226.2,332.9z"/>
<path class="st1" d="M254.5,350.5v-40.2c0-11,6.1-16.6,18.3-16.6c3.1,0,6.2,0.5,9.1,1.5v8c-2.7-1-5.5-1.6-8.3-1.5
	c-4.2-0.6-8.1,2.2-8.7,6.4c-0.1,0.7-0.1,1.4,0,2.1H277v8h-12.2v32.2H254.5z"/>
<path class="st1" d="M297.6,310.3c12.3,0,18.5,6.2,18.5,18.7c0,1.6-0.2,3.3-0.5,4.9h-26.8c0,5.7,4.3,8.5,12.8,8.5
	c4.1,0,8.2-0.4,12.3-1.1v8c-4.3,0.8-8.7,1.2-13.1,1.1c-14.7,0-22.1-6.9-22.1-20.6C278.6,316.9,284.9,310.3,297.6,310.3z
	 M288.8,326.9H306v-0.3c0.5-4.1-2.3-7.8-6.4-8.4c-0.7-0.1-1.4-0.1-2.1,0C292.2,318.2,289.2,321.1,288.8,326.9z"/>
<path class="st1" d="M324.8,350.5v-54.9H335v22.7h27.3v-22.7h10.2v54.9h-10.2v-23.4H335v23.4H324.8z"/>
<path class="st1" d="M381.2,330.4c0-13.5,6.7-20.3,20.1-20.3s20.1,6.8,20.1,20.3c0,13.5-6.7,20.2-20.1,20.2S381.2,343.9,381.2,330.4
	z M401.3,342.8c6.6,0,9.9-4.3,9.9-12.8c0-8.5-3.3-12.6-9.9-12.3c-6.6,0-9.9,4.1-9.9,12.3S394.8,342.6,401.3,342.8z"/>
<path class="st1" d="M429.2,350.5v-40.2h7.9l1.2,5.8c3.3-3.8,8.1-5.9,13.1-5.8c4.3-0.4,8.4,1.7,10.5,5.5c3.5-3.4,8.1-5.4,13-5.5
	c9.3,0,14,5.1,14,15.3v25h-10.2v-25.4c0-4.5-2-6.7-6.1-6.7c-3.4,0.2-6.5,1.7-8.8,4.1v28.1h-10.2v-25.4c0-4.6-1.9-6.8-5.6-6.8
	c-3.3,0.1-6.4,1.6-8.5,4.1v28.1L429.2,350.5z"/>
<path class="st1" d="M515.7,310.3c12.3,0,18.5,6.2,18.5,18.7c0,1.7-0.1,3.4-0.4,5h-27c0,5.7,4.3,8.5,12.8,8.5
	c4.1,0,8.2-0.4,12.3-1.1v8c-4.3,0.8-8.7,1.2-13.1,1.1c-14.7,0-22.1-6.9-22.1-20.6C496.7,316.9,503,310.3,515.7,310.3z M506.9,327
	h17.3v-0.3c0.5-4.1-2.3-7.8-6.4-8.4c-0.7-0.1-1.4-0.1-2.1,0C510.3,318.2,507.3,321.1,506.9,327L506.9,327z"/>
<path class="st1" d="M548.6,345.1v5.9h-6.4v-5.9H548.6z"/>
<path class="st1" d="M552.8,338.4c0-8.5,4.3-12.8,12.8-12.8s12.8,4.3,12.8,12.8c0,8.5-4.3,12.8-12.8,12.8S552.8,347,552.8,338.4z
	 M565.6,346.3c4.1,0,6.2-2.6,6.2-7.9c0-5.3-2.1-7.9-6.2-7.7c-4.1,0-6.2,2.6-6.2,7.7s2.1,7.7,6.2,7.8L565.6,346.3z"/>
<path class="st1" d="M582.8,350.9v-25.1h5l0.8,3.2c1.8-2,4.4-3.1,7.1-3.2v5.1c-2.4,0-4.8,1.1-6.4,2.9v17.1H582.8z"/>
<path class="st1" d="M622,349c0,7.4-4.5,11-13.4,11c-2.8,0-5.6-0.4-8.3-1.2v-5c2.7,0.8,5.5,1.3,8.4,1.2c4.6,0,7-1.9,7-5.8
	c-2,0.8-4,1.2-6.2,1.2c-7.6,0-11.3-4.1-11.3-12.3c0-8.2,4.4-12.3,13.2-12.4c3.6,0.1,7.2,0.4,10.7,1.1L622,349z M615.6,331.4
	c-1.4-0.4-3-0.6-4.5-0.6c-4.4,0-6.7,2.4-6.7,7.3c0,4.9,1.9,7.2,5.7,7c1.9,0,3.7-0.4,5.4-1.3V331.4z"/>
</svg>
